<?xml version="1.0" encoding="UTF-8" standalone="no"?>
<!-- Created with Inkscape (http://www.inkscape.org/) -->

<svg
   xmlns:dc="http://purl.org/dc/elements/1.1/"
   xmlns:cc="http://creativecommons.org/ns#"
   xmlns:rdf="http://www.w3.org/1999/02/22-rdf-syntax-ns#"
   xmlns:svg="http://www.w3.org/2000/svg"
   xmlns="http://www.w3.org/2000/svg"
   xmlns:sodipodi="http://sodipodi.sourceforge.net/DTD/sodipodi-0.dtd"
   xmlns:inkscape="http://www.inkscape.org/namespaces/inkscape"
   width="96"
   height="24"
   viewBox="0 0 25.4 6.3500002"
   version="1.1"
   id="svg8"
   inkscape:version="0.92.2 (5c3e80d, 2017-08-06)"
   sodipodi:docname="logo2.svg">
  <defs
     id="defs2" />
  <sodipodi:namedview
     id="base"
     pagecolor="#ffffff"
     bordercolor="#666666"
     borderopacity="1.0"
     inkscape:pageopacity="0.0"
     inkscape:pageshadow="2"
     inkscape:zoom="3.7196763"
     inkscape:cx="-23.176261"
     inkscape:cy="39.642583"
     inkscape:document-units="mm"
     inkscape:current-layer="layer1"
     showgrid="false"
     units="px"
     inkscape:pagecheckerboard="false"
     borderlayer="true"
     inkscape:object-nodes="false"
     inkscape:snap-nodes="false"
     inkscape:window-width="1533"
     inkscape:window-height="845"
     inkscape:window-x="67"
     inkscape:window-y="27"
     inkscape:window-maximized="1" />
  <metadata
     id="metadata5">
    <rdf:RDF>
      <cc:Work
         rdf:about="">
        <dc:format>image/svg+xml</dc:format>
        <dc:type
           rdf:resource="http://purl.org/dc/dcmitype/StillImage" />
        <dc:title></dc:title>
      </cc:Work>
    </rdf:RDF>
  </metadata>
  <g
     inkscape:label="Layer 1"
     inkscape:groupmode="layer"
     id="layer1"
     transform="translate(0,-290.64998)">
    <path
       style="fill:#000000;stroke-width:0.04122161"
       d="M 3.0507812 0.71679688 L 3.0507812 0.71875 C 2.9314529 0.716785 2.8333017 0.7631193 2.7695312 0.83984375 C 2.7061746 0.91656815 2.6765739 1.0230817 2.7011719 1.140625 C 2.7180479 1.221129 2.7243071 1.226424 3.2070312 1.6953125 L 3.6953125 2.1699219 L 3.6308594 2.2148438 C 3.4826165 2.3176465 3.4267691 2.4406158 3.4609375 2.5917969 C 3.4797515 2.6772139 3.4786025 2.6777389 3.4140625 2.7011719 C 3.2725135 2.7484159 3.169965 2.9698726 3.2246094 3.109375 C 3.2385824 3.143391 3.2336195 3.164316 3.2109375 3.171875 C 3.1917715 3.175655 3.1388465 3.221783 3.0878906 3.265625 C 3.0100456 3.334412 2.9923064 3.359388 2.9804688 3.4296875 C 2.9726288 3.4754195 2.9718256 3.5442993 2.9785156 3.5839844 C 2.9895256 3.6512604 3.0100486 3.6743194 3.4121094 4.0722656 L 3.8339844 4.4902344 L 4.0664062 4.6015625 C 4.2907756 4.7085228 4.467033 4.5714906 4.7207031 4.8046875 C 5.017585 5.080593 6.031189 5.3710648 6.0878906 7.4160156 C 6.1445911 8.5572818 5.2163223 10.311124 5.2089844 11.365234 C 5.1946891 13.423952 7.2741676 13.737793 9.3496094 13.306641 C 7.5283164 14.102015 5.7580458 14.409987 4.0488281 15.267578 C 3.7610696 15.411956 2.9697299 15.450652 2.5429688 15.365234 C 2.0700693 15.272258 2.0216096 15.253877 1.8164062 15.101562 C 1.6904336 15.008209 1.6288409 14.87567 1.5410156 14.755859 L 1.5039062 14.693359 C 1.2205011 13.152824 1.992912 12.763933 2.2285156 12.546875 C 2.4351182 12.358655 2.5775289 12.470939 2.7597656 12.384766 L 2.9492188 12.296875 L 3.2929688 11.957031 C 3.6196729 11.635771 3.6388966 11.616661 3.6464844 11.5625 C 3.6489893 11.532264 3.648193 11.478382 3.6445312 11.439453 C 3.636995 11.382004 3.6223543 11.360688 3.5585938 11.306641 C 3.516017 11.272625 3.4718084 11.235823 3.4570312 11.232422 C 3.4350307 11.228642 3.4391539 11.208789 3.4492188 11.179688 C 3.4953931 11.06668 3.4090972 10.889294 3.2949219 10.849609 C 3.2469328 10.830712 3.2480792 10.827797 3.2617188 10.759766 C 3.2897174 10.637309 3.243079 10.535897 3.1230469 10.453125 L 3.0722656 10.416016 L 3.46875 10.033203 C 3.8629338 9.6552127 3.8636398 9.6494836 3.8808594 9.5839844 C 3.8998326 9.4891182 3.8770774 9.4040956 3.828125 9.3398438 C 3.7771108 9.2759697 3.6963007 9.2391005 3.5996094 9.2402344 L 3.5976562 9.2402344 C 3.4916557 9.2417462 3.4395322 9.2806417 3.0429688 9.6621094 C 2.7113628 9.9811015 2.6731644 10.014806 2.6386719 10.013672 C 2.6200653 10.010308 2.3576122 10.03094 2.1367188 10.056641 C 1.6866097 10.112578 1.569598 10.259917 1.5117188 10.392578 C 1.4843021 10.451539 1.4902192 10.536808 1.5566406 10.808594 C 1.6072761 11.01609 1.6735299 11.189541 1.6796875 11.253906 L 1.6835938 11.359375 L 1.4785156 11.556641 C 0.90513097 12.109283 0.11940615 13.35437 0.39648438 14.810547 C 0.39727841 14.814326 0.39576441 14.820566 0.39648438 14.828125 C 0.39732905 14.831338 0.39764146 14.832158 0.3984375 14.835938 C 0.39952778 14.839716 0.39952109 14.847784 0.40234375 14.851562 L 0.40625 14.851562 C 0.54707293 15.365767 0.58937579 15.668934 0.98828125 16.111328 C 1.7349425 16.939423 2.7195809 17.080713 4.0390625 16.839844 C 4.5682916 16.743088 5.8615208 16.142109 6.8007812 15.861328 C 7.7539155 15.576311 8.4680248 15.623874 10.482422 14.976562 C 9.4554664 16.043449 7.6959801 16.572277 6.6132812 16.677734 L 6.625 16.689453 C 5.3449318 16.947827 3.9522627 18.728684 3.5019531 19.605469 L 3.3417969 19.917969 L 3.2148438 19.949219 C 3.1359078 19.964339 2.9078333 19.947521 2.6445312 19.962891 C 2.2998121 19.981791 2.1986164 20.006064 2.1386719 20.058594 C 2.0037885 20.175759 1.8686148 20.364734 1.9628906 20.916016 C 2.0101756 21.187008 2.0795812 21.504754 2.0898438 21.525391 C 2.1049316 21.563191 2.0793828 21.623551 1.8203125 22.128906 C 1.5104857 22.733215 1.4798563 22.808113 1.515625 22.933594 L 1.5175781 22.931641 L 1.5195312 22.931641 C 1.5525492 23.04616 1.6247767 23.125513 1.7167969 23.164062 C 1.8086959 23.202232 1.9182272 23.199268 2.0234375 23.142578 C 2.0954865 23.102898 2.0990365 23.094808 2.40625 22.496094 L 2.7167969 21.890625 L 2.7792969 21.939453 C 2.9209596 22.051327 3.0548745 22.067338 3.1894531 21.990234 C 3.2656341 21.947144 3.2673111 21.948663 3.3085938 22.001953 C 3.3951686 22.123654 3.636484 22.157807 3.7539062 22.064453 C 3.7823472 22.041773 3.8025454 22.037867 3.8164062 22.060547 C 3.8256262 22.079447 3.8865302 22.114491 3.9433594 22.150391 C 4.0319064 22.204821 4.0601709 22.214148 4.1308594 22.205078 C 4.1768824 22.197478 4.2433007 22.178739 4.2792969 22.162109 C 4.3404119 22.131869 4.3561759 22.106219 4.6191406 21.605469 L 4.8964844 21.078125 L 4.9335938 20.824219 C 4.9702546 20.578549 4.7886818 20.449538 4.9375 20.138672 C 5.114518 19.773947 5.0942386 18.72063 7.0332031 18.068359 C 7.3012208 17.971599 7.6257446 17.922624 7.9746094 17.898438 L 7.96875 17.888672 C 8.6485496 17.871932 9.9073297 17.573826 10.435547 17.316406 C 11.436587 16.827827 11.94292 16.476406 12.310547 15.828125 C 12.454014 15.521983 12.59412 15.271484 12.621094 15.271484 C 12.648084 15.271484 12.975356 15.470836 13.101562 15.607422 C 13.360862 15.888043 13.179467 15.676664 13.732422 16.410156 C 14.647409 17.623952 15.04418 18.311468 15.289062 19.117188 C 15.382662 19.425215 15.401345 19.561146 15.404297 19.996094 C 15.407597 20.478059 15.398997 20.53026 15.291016 20.761719 C 15.224626 20.903988 15.107572 20.989615 15.007812 21.099609 L 14.953125 21.148438 C 13.500337 21.734041 12.964848 21.054706 12.705078 20.867188 C 12.479236 20.702249 12.562204 20.540292 12.441406 20.378906 L 12.316406 20.210938 L 11.916016 19.943359 C 11.535813 19.687485 11.513621 19.67238 11.458984 19.675781 C 11.427924 19.679581 11.375154 19.691785 11.337891 19.703125 C 11.282951 19.723155 11.265051 19.740755 11.224609 19.814453 C 11.200469 19.862833 11.172055 19.912613 11.171875 19.927734 C 11.170775 19.948784 11.154877 19.949092 11.123047 19.945312 C 11.003198 19.923774 10.846179 20.042302 10.830078 20.162109 C 10.820048 20.213209 10.818147 20.212291 10.748047 20.212891 C 10.622604 20.209891 10.533773 20.274031 10.476562 20.408203 L 10.451172 20.466797 L 9.9960938 20.154297 C 9.546943 19.843552 9.5422327 19.843434 9.4746094 19.839844 C 9.3778984 19.840222 9.2994832 19.880554 9.2460938 19.941406 C 9.1937608 20.004146 9.1727984 20.089106 9.1933594 20.183594 L 9.1914062 20.183594 L 9.1933594 20.1875 C 9.2160274 20.29087 9.2656544 20.332342 9.71875 20.644531 C 10.097537 20.905697 10.136758 20.936687 10.142578 20.970703 C 10.143024 20.989333 10.216918 21.243803 10.287109 21.455078 C 10.431699 21.884962 10.59888 21.969764 10.740234 22 C 10.803294 22.01512 10.885504 21.9921 11.138672 21.873047 C 11.331857 21.781957 11.488948 21.68296 11.550781 21.664062 L 11.652344 21.636719 L 11.886719 21.798828 C 12.542831 22.25016 13.919592 22.771522 15.291016 22.208984 C 15.296316 22.207084 15.303304 22.206978 15.308594 22.205078 C 15.311594 22.203578 15.313506 22.202672 15.316406 22.201172 C 15.321706 22.198972 15.326731 22.197612 15.332031 22.195312 L 15.332031 22.191406 C 15.807699 21.950555 16.159928 21.83277 16.513672 21.353516 C 17.175805 20.456372 17.052472 19.479087 16.552734 18.234375 C 16.352283 17.735137 16.164572 17.395321 15.628906 16.574219 C 15.530136 16.375573 15.436583 16.205716 15.351562 15.912109 C 15.285364 15.6835 15.48834 15.725609 15.587891 15.851562 C 16.347762 16.812972 16.719264 16.930959 17.638672 17.236328 C 18.265328 17.437018 18.697017 17.653718 19.027344 17.927734 C 19.622132 18.420903 19.848894 18.975384 19.726562 19.513672 C 18.976243 20.809018 19.095882 21.763065 20.15625 22.789062 C 20.401624 23.022372 20.266517 23.171272 20.40625 23.316406 L 20.550781 23.466797 L 20.982422 23.679688 C 21.392984 23.884612 21.417049 23.89415 21.470703 23.882812 C 21.500943 23.875614 21.552554 23.860697 21.587891 23.841797 C 21.639761 23.814587 21.655117 23.795037 21.685547 23.716797 C 21.703077 23.665777 21.727029 23.608994 21.724609 23.597656 C 21.721309 23.574976 21.736508 23.569854 21.767578 23.570312 C 21.889059 23.575612 22.031048 23.439304 22.03125 23.318359 C 22.03505 23.263559 22.036449 23.263419 22.105469 23.255859 C 22.23033 23.242629 22.311145 23.16794 22.349609 23.027344 L 22.369141 22.966797 L 22.859375 23.216797 C 23.345698 23.46549 23.350425 23.46081 23.417969 23.457031 C 23.513579 23.444181 23.587047 23.395782 23.630859 23.328125 C 23.674509 23.258955 23.685304 23.171164 23.652344 23.080078 L 23.654297 23.080078 L 23.652344 23.072266 C 23.616244 22.972936 23.560643 22.936949 23.070312 22.6875 C 22.660427 22.478493 22.617059 22.453938 22.607422 22.419922 C 22.604622 22.401212 22.497684 22.159299 22.400391 21.958984 C 22.200503 21.552231 22.023 21.491808 21.878906 21.480469 C 21.814406 21.473669 21.737346 21.506639 21.501953 21.658203 C 21.322291 21.773857 21.178102 21.893466 21.119141 21.919922 L 21.023438 21.958984 L 20.769531 21.830078 C 20.052568 21.465508 20.169937 20.806728 20.703125 20.001953 L 20.695312 19.998047 C 20.898132 19.614329 20.999546 19.204994 20.96875 18.822266 C 20.96655 18.070631 20.733372 17.468801 20.267578 17.001953 C 19.951046 16.684475 19.464417 16.438908 18.728516 16.224609 C 18.088076 15.771028 17.636534 15.549809 17.328125 15.15625 C 17.645771 15.303722 17.952526 15.424724 18.220703 15.505859 C 19.229729 15.808826 20.989166 15.705681 22.0625 16.097656 C 23.998982 16.757259 23.976656 17.810679 24.152344 18.175781 C 24.299989 18.487063 24.116627 18.615281 24.152344 18.861328 L 24.189453 19.117188 L 24.464844 19.644531 C 24.726172 20.145772 24.741132 20.172889 24.802734 20.203125 C 24.838088 20.222023 24.903641 20.240488 24.949219 20.248047 C 25.019798 20.257874 25.049936 20.247407 25.138672 20.193359 C 25.19558 20.157832 25.254488 20.118634 25.263672 20.103516 C 25.277554 20.080838 25.299212 20.084745 25.328125 20.107422 C 25.445159 20.200776 25.68644 20.16782 25.773438 20.046875 C 25.814788 19.993584 25.814063 19.995535 25.890625 20.037109 C 26.024808 20.11459 26.158747 20.097446 26.300781 19.986328 L 26.363281 19.9375 L 26.671875 20.544922 C 26.9773 21.143599 26.980867 21.151343 27.052734 21.191406 C 27.157707 21.248099 27.267366 21.252639 27.359375 21.214844 C 27.451497 21.176671 27.525221 21.096942 27.558594 20.982422 L 27.560547 20.982422 L 27.5625 20.986328 C 27.598742 20.860999 27.569259 20.785129 27.261719 20.179688 C 27.004495 19.673647 26.976956 19.613967 26.992188 19.576172 C 27.002516 19.555573 27.07471 19.237789 27.123047 18.966797 C 27.219436 18.416006 27.083687 18.226918 26.949219 18.109375 C 26.88943 18.05684 26.790009 18.034396 26.445312 18.011719 C 26.182049 17.99369 25.951653 18.007305 25.873047 17.992188 L 25.748047 17.962891 L 25.589844 17.648438 C 25.139657 16.763688 23.735808 14.95396 22.449219 14.710938 C 21.180346 14.471315 20.24414 14.383889 19.169922 14.078125 C 19.106725 14.060129 18.897535 13.934024 18.689453 13.806641 C 18.960353 13.817469 19.22309 13.821735 19.447266 13.822266 C 19.931171 13.823366 21.688662 13.634299 22.519531 12.919922 C 23.528865 12.05254 23.763074 11.755807 24.326172 11.736328 C 24.581384 11.827048 24.812723 11.930855 24.994141 12.058594 C 26.370614 12.982024 26.132829 13.801903 26.193359 14.125 C 26.243419 14.399943 26.072441 14.462072 26.048828 14.662109 L 26.023438 14.869141 L 26.126953 15.337891 C 26.225253 15.786057 26.233495 15.810617 26.275391 15.845703 C 26.300371 15.864533 26.346638 15.896059 26.380859 15.912109 C 26.434649 15.935299 26.45908 15.933603 26.539062 15.908203 C 26.589952 15.889753 26.645404 15.873321 26.65625 15.863281 C 26.67257 15.847361 26.686338 15.858514 26.705078 15.882812 C 26.777068 15.980652 26.974271 16.005387 27.068359 15.929688 C 27.110939 15.899348 27.110839 15.899156 27.162109 15.947266 C 27.250999 16.036126 27.358308 16.050517 27.492188 15.992188 L 27.552734 15.970703 L 27.666016 16.511719 C 27.777473 17.04629 27.78158 17.04835 27.828125 17.097656 C 27.898385 17.163886 27.982226 17.190081 28.0625 17.181641 C 28.14368 17.172341 28.219216 17.123832 28.269531 17.041016 L 28.271484 17.037109 C 28.326214 16.946629 28.318368 16.882184 28.205078 16.34375 C 28.110318 15.893575 28.102881 15.842296 28.123047 15.814453 C 28.135517 15.800573 28.256738 15.564792 28.351562 15.363281 C 28.542894 14.952388 28.47888 14.778521 28.398438 14.658203 C 28.363158 14.603763 28.287112 14.562829 28.021484 14.474609 C 27.818677 14.407359 27.635769 14.373032 27.578125 14.34375 L 27.486328 14.292969 L 27.427734 14.013672 C 27.261597 13.22669 26.545429 11.515375 25.589844 11.054688 C 25.488755 11.006138 25.388964 10.970282 25.289062 10.931641 C 25.013246 10.752785 24.449358 10.628382 24.240234 10.634766 C 23.440597 10.658796 22.883873 10.673913 21.865234 11.539062 C 20.886202 12.370732 19.891376 12.515043 19.328125 12.496094 C 18.922326 12.482444 17.687498 12.534097 17.6875 12.347656 C 17.6875 12.261486 18.241925 12.375236 18.697266 12.335938 C 19.118351 12.301918 19.317559 12.250652 19.744141 12.025391 C 20.085591 11.845107 20.471199 11.5073 20.898438 11.130859 L 20.900391 11.132812 L 20.902344 11.132812 C 20.907144 11.129014 20.911246 11.120966 20.916016 11.117188 C 20.929656 11.105848 20.941308 11.093371 20.955078 11.082031 C 20.952878 11.079431 20.949566 11.079972 20.947266 11.076172 C 20.984386 11.033842 21.016836 10.986822 21.052734 10.943359 C 23.328364 8.7657862 23.802734 6.1367187 23.802734 6.1367188 C 23.901734 5.8940731 24.058166 5.9729988 24.220703 5.7851562 L 24.388672 5.5917969 L 24.607422 5.0390625 C 24.816094 4.513218 24.825469 4.4859124 24.808594 4.4199219 C 24.798794 4.3809929 24.769601 4.3158945 24.744141 4.2773438 C 24.705071 4.2176268 24.678901 4.2036228 24.580078 4.171875 C 24.515908 4.152977 24.448876 4.1306718 24.429688 4.1367188 C 24.405428 4.1377386 24.393898 4.1217172 24.392578 4.0820312 C 24.386578 3.9319844 24.203219 3.7695968 24.054688 3.7832031 C 23.985948 3.7869831 23.98549 3.787033 23.96875 3.703125 C 23.93902 3.5507802 23.837027 3.4582218 23.660156 3.4238281 L 23.585938 3.4082031 L 23.841797 2.7773438 C 24.095951 2.1542886 24.098759 2.1486365 24.082031 2.0683594 C 24.057431 1.9508161 23.989381 1.8637137 23.900391 1.8183594 C 23.811121 1.7733834 23.700239 1.7684694 23.591797 1.8183594 C 23.473305 1.8731624 23.436295 1.9434656 23.179688 2.5722656 C 22.965162 3.0979223 22.936176 3.1602719 22.898438 3.171875 C 22.875348 3.175655 22.587622 3.333255 22.351562 3.4746094 C 21.872118 3.7622314 21.819559 3.9836401 21.818359 4.1621094 C 21.817812 4.2418574 21.865099 4.3325368 22.074219 4.6074219 C 22.2339 4.8175636 22.394199 4.9819942 22.435547 5.0507812 L 22.496094 5.1660156 L 22.474609 5.7773438 C 22.474609 5.7773438 22.278043 7.9190881 20.390625 9.5078125 L 20.392578 9.5234375 C 20.21258 9.6409199 19.988357 9.7381811 19.837891 9.875 C 19.229299 10.271246 19.041609 10.57398 18.476562 10.576172 C 17.847059 10.578672 17.268749 10.628022 16.951172 10.310547 C 16.671921 10.031618 16.687503 9.9326113 17.136719 9.1367188 C 17.782922 7.9913329 18.06914 6.1704296 17.779297 5.0566406 C 17.501313 3.9883194 16.753225 3.1023588 15.693359 2.5820312 C 15.131989 2.3065041 14.681816 2.1917842 14.144531 2.1914062 C 13.261458 2.1907263 12.461917 2.5569158 11.910156 3.2128906 C 11.648772 3.5235678 11.331882 4.1762767 11.207031 4.6640625 C 11.008035 5.4414357 10.974161 6.1845143 11.080078 7.4550781 C 11.166408 8.4908577 11.167954 9.3471558 11.083984 9.6992188 C 10.948801 10.266866 10.638683 10.737264 10.222656 11.087891 C 7.9372312 12.03538 6.8436649 11.389584 6.8554688 10.880859 C 6.8813581 9.7642374 7.3805488 8.7399541 7.5273438 7.4570312 C 7.6761849 6.1561561 6.3622197 4.2798465 5.6503906 3.5878906 L 5.3984375 3.34375 L 5.4082031 3.2148438 C 5.4185971 3.1354738 5.4985021 2.9204279 5.5605469 2.6640625 C 5.6418259 2.3284405 5.6496235 2.2249481 5.6171875 2.1523438 C 5.5445143 1.9890682 5.4041889 1.8053923 4.8496094 1.734375 C 4.5766972 1.7003593 4.251248 1.6739548 4.2285156 1.6777344 C 4.1892879 1.6815139 4.1378139 1.6376773 3.7304688 1.2421875 C 3.2432072 0.76917967 3.181243 0.71929132 3.0507812 0.71679688 z M 58.744141 4.4589844 C 58.192199 4.4589844 57.703165 4.4897422 57.277344 4.5527344 C 56.867308 4.6003564 56.497185 4.7114113 56.166016 4.8847656 C 55.834841 5.0423215 55.543347 5.2704952 55.291016 5.5703125 C 55.03875 5.8698023 54.800903 6.2552432 54.580078 6.7285156 L 49.779297 17.375 C 49.590043 17.785129 49.494141 18.114992 49.494141 18.367188 C 49.494141 18.87213 49.691687 19.282519 50.085938 19.597656 C 50.46442 19.913348 51.009078 20.072266 51.71875 20.072266 L 56.78125 20.072266 C 57.333192 20.072266 57.822225 20.049261 58.248047 20.003906 C 58.673856 19.94041 59.051645 19.829355 59.382812 19.671875 C 59.71397 19.498445 59.997802 19.262708 60.234375 18.962891 C 60.486641 18.663401 60.722534 18.276007 60.943359 17.802734 L 65.792969 7.1542969 C 65.966449 6.7917898 66.052734 6.4599988 66.052734 6.1601562 C 66.052734 5.6557911 65.857143 5.247332 65.462891 4.9316406 C 65.068633 4.6165036 64.516305 4.4589844 63.806641 4.4589844 L 58.744141 4.4589844 z M 41.714844 4.4609375 L 40.175781 7.890625 L 45.806641 7.890625 C 46.074715 7.890625 46.279941 7.9535899 46.421875 8.0800781 C 46.563784 8.2059868 46.634766 8.3730226 46.634766 8.578125 C 46.634766 8.7038573 46.611496 8.8210265 46.564453 8.9316406 L 45.996094 10.255859 L 39.113281 10.255859 L 34.617188 20.074219 L 39.136719 20.074219 L 42.068359 13.683594 L 46.351562 13.683594 C 46.840467 13.683594 47.25659 13.660589 47.603516 13.615234 C 47.966224 13.567612 48.275012 13.466074 48.527344 13.308594 C 48.795433 13.151013 49.031327 12.937991 49.236328 12.669922 C 49.441335 12.401878 49.646563 12.039404 49.851562 11.582031 L 51.863281 7.1582031 C 52.036762 6.7955953 52.123047 6.4714685 52.123047 6.1875 C 52.123047 5.6673614 51.925503 5.2492849 51.53125 4.9335938 C 51.152761 4.6184567 50.6081 4.4609375 49.898438 4.4609375 L 41.714844 4.4609375 z M 69.851562 4.4609375 L 68.291016 7.890625 L 79.787109 7.890625 L 81.347656 4.4609375 L 78.130859 4.4609375 C 77.626182 4.4609375 77.200441 4.4992589 76.853516 4.578125 C 76.522346 4.6408652 76.230844 4.7367933 75.978516 4.8632812 C 75.726182 4.9738954 75.49797 5.1232717 75.292969 5.3125 C 75.087972 5.4860055 74.875122 5.675757 74.654297 5.8808594 L 72.714844 7.8203125 L 74.369141 4.4609375 L 69.851562 4.4609375 z M 86.4375 4.4609375 L 84.876953 7.890625 L 93.369141 7.890625 L 94.929688 4.4609375 L 86.4375 4.4609375 z M 14.623047 6.3886719 C 15.131372 6.389579 15.543245 7.0953512 15.542969 7.9667969 C 15.543245 8.8382425 15.131372 9.5459301 14.623047 9.546875 C 14.113933 9.5478577 13.700895 8.839641 13.701172 7.9667969 C 13.700895 7.0939906 14.113933 6.3876892 14.623047 6.3886719 z M 12.527344 6.6328125 C 12.957878 6.632359 13.307881 7.2306839 13.308594 7.96875 C 13.30918 8.7084413 12.958795 9.3090091 12.527344 9.3085938 C 12.095889 9.3090091 11.745507 8.7084413 11.746094 7.96875 C 11.746807 7.2306461 12.096807 6.632359 12.527344 6.6328125 z M 59.642578 7.890625 C 59.926474 7.890625 60.147006 7.9535899 60.304688 8.0800781 C 60.462367 8.2059868 60.541016 8.3730226 60.541016 8.578125 C 60.541016 8.6569911 60.510333 8.7741603 60.447266 8.9316406 L 57.394531 15.650391 C 57.079125 16.31274 56.61504 16.644531 56 16.644531 C 55.337643 16.644531 55.005859 16.423946 55.005859 15.982422 C 55.005859 15.824942 55.038472 15.683129 55.101562 15.556641 L 58.128906 8.8847656 C 58.428547 8.2223656 58.932914 7.890625 59.642578 7.890625 z M 72.263672 10.255859 L 67.203125 10.259766 L 62.755859 20.076172 L 67.273438 20.076172 L 70.183594 13.689453 L 70.75 13.689453 C 70.986586 13.689453 71.176451 13.71246 71.318359 13.757812 C 71.476084 13.804679 71.610341 13.883526 71.720703 13.994141 C 71.831116 14.10473 71.925065 14.246568 72.003906 14.419922 C 72.098546 14.578057 72.202138 14.775372 72.3125 15.011719 L 74.654297 20.074219 L 79.148438 20.074219 L 75.505859 12.693359 C 74.685798 11.069019 73.604152 10.255859 72.263672 10.255859 z M 83.8125 10.255859 L 79.341797 20.074219 L 87.833984 20.074219 L 89.394531 16.644531 L 85.421875 16.644531 L 86.769531 13.6875 L 90.744141 13.6875 L 92.304688 10.255859 L 83.8125 10.255859 z "
       transform="matrix(0.26458333,0,0,0.26458333,0,290.64998)"
       id="path1064" />
  </g>
</svg>
