<?xml version="1.0" encoding="UTF-8" standalone="no"?>
<!-- Created with Inkscape (http://www.inkscape.org/) -->

<svg
   xmlns:dc="http://purl.org/dc/elements/1.1/"
   xmlns:cc="http://creativecommons.org/ns#"
   xmlns:rdf="http://www.w3.org/1999/02/22-rdf-syntax-ns#"
   xmlns:svg="http://www.w3.org/2000/svg"
   xmlns="http://www.w3.org/2000/svg"
   xmlns:sodipodi="http://sodipodi.sourceforge.net/DTD/sodipodi-0.dtd"
   xmlns:inkscape="http://www.inkscape.org/namespaces/inkscape"
   width="96"
   height="24"
   viewBox="0 0 25.4 6.3500002"
   version="1.1"
   id="svg8"
   inkscape:version="0.92.2 (5c3e80d, 2017-08-06)"
   sodipodi:docname="logo2.svg">
  <defs
     id="defs2" />
  <sodipodi:namedview
     id="base"
     pagecolor="#ffffff"
     bordercolor="#666666"
     borderopacity="1.0"
     inkscape:pageopacity="0.0"
     inkscape:pageshadow="2"
     inkscape:zoom="22.627417"
     inkscape:cx="16.207496"
     inkscape:cy="13.847542"
     inkscape:document-units="mm"
     inkscape:current-layer="layer1"
     showgrid="false"
     units="px"
     inkscape:pagecheckerboard="false"
     borderlayer="true"
     inkscape:object-nodes="false"
     inkscape:snap-nodes="false"
     inkscape:window-width="1533"
     inkscape:window-height="845"
     inkscape:window-x="67"
     inkscape:window-y="27"
     inkscape:window-maximized="1" />
  <metadata
     id="metadata5">
    <rdf:RDF>
      <cc:Work
         rdf:about="">
        <dc:format>image/svg+xml</dc:format>
        <dc:type
           rdf:resource="http://purl.org/dc/dcmitype/StillImage" />
        <dc:title></dc:title>
      </cc:Work>
    </rdf:RDF>
  </metadata>
  <g
     inkscape:label="Layer 1"
     inkscape:groupmode="layer"
     id="layer1"
     transform="translate(0,-290.64998)">
    <path
       style="fill:#000000;stroke-width:0.04122161"
       d="M 83.8125 10.255859 L 79.341797 20.074219 L 87.833984 20.074219 L 89.394531 16.644531 L 85.421875 16.644531 L 86.769531 13.6875 L 90.744141 13.6875 L 92.304688 10.255859 L 83.8125 10.255859 z "
       id="path1064"
       transform="matrix(0.26458333,0,0,0.26458333,0,290.64998)" />
    <path
       style="fill:#000000;stroke-width:0.04122161"
       d="M 41.714844 4.4609375 L 40.175781 7.890625 L 45.806641 7.890625 C 46.074715 7.890625 46.279941 7.9535899 46.421875 8.0800781 C 46.563784 8.2059868 46.634766 8.3730226 46.634766 8.578125 C 46.634766 8.7038573 46.611496 8.8210265 46.564453 8.9316406 L 45.996094 10.255859 L 39.113281 10.255859 L 34.617188 20.074219 L 39.136719 20.074219 L 42.068359 13.683594 L 46.351562 13.683594 C 46.840467 13.683594 47.25659 13.660589 47.603516 13.615234 C 47.966224 13.567612 48.275012 13.466074 48.527344 13.308594 C 48.795433 13.151013 49.031327 12.937991 49.236328 12.669922 C 49.441335 12.401878 49.646562 12.039404 49.851562 11.582031 L 51.863281 7.1582031 C 52.036762 6.7955953 52.123047 6.4714685 52.123047 6.1875 C 52.123047 5.6673614 51.925503 5.249285 51.53125 4.9335938 C 51.152761 4.6184567 50.608101 4.4609375 49.898438 4.4609375 L 41.714844 4.4609375 z "
       id="path1062"
       transform="matrix(0.26458333,0,0,0.26458333,0,290.64998)" />
    <path
       style="fill:#000000;stroke-width:0.04122161"
       d="M 58.744141 4.4589844 C 58.192199 4.4589844 57.703165 4.4897422 57.277344 4.5527344 C 56.867308 4.6003564 56.497185 4.7114113 56.166016 4.8847656 C 55.834841 5.0423215 55.543347 5.2704952 55.291016 5.5703125 C 55.03875 5.8698023 54.800903 6.2552432 54.580078 6.7285156 L 49.779297 17.375 C 49.590043 17.785129 49.494141 18.114992 49.494141 18.367188 C 49.494141 18.872131 49.691687 19.282519 50.085938 19.597656 C 50.464421 19.913348 51.009078 20.072266 51.71875 20.072266 L 56.78125 20.072266 C 57.333192 20.072266 57.822225 20.049261 58.248047 20.003906 C 58.673856 19.94041 59.051644 19.829355 59.382812 19.671875 C 59.71397 19.498445 59.997802 19.262708 60.234375 18.962891 C 60.486641 18.663401 60.722534 18.276007 60.943359 17.802734 L 65.792969 7.1542969 C 65.966449 6.7917898 66.052734 6.4599988 66.052734 6.1601562 C 66.052734 5.655791 65.857143 5.247332 65.462891 4.9316406 C 65.068633 4.6165036 64.516305 4.4589844 63.806641 4.4589844 L 58.744141 4.4589844 z M 69.851562 4.4609375 L 68.291016 7.890625 L 79.787109 7.890625 L 81.347656 4.4609375 L 78.130859 4.4609375 C 77.626182 4.4609375 77.200441 4.4992589 76.853516 4.578125 C 76.522346 4.6408652 76.230844 4.7367932 75.978516 4.8632812 C 75.726182 4.9738954 75.49797 5.1232717 75.292969 5.3125 C 75.087972 5.4860055 74.875122 5.675757 74.654297 5.8808594 L 72.714844 7.8203125 L 74.369141 4.4609375 L 69.851562 4.4609375 z M 86.4375 4.4609375 L 84.876953 7.890625 L 93.369141 7.890625 L 94.929688 4.4609375 L 86.4375 4.4609375 z M 59.642578 7.890625 C 59.926474 7.890625 60.147006 7.9535899 60.304688 8.0800781 C 60.462368 8.2059868 60.541016 8.3730226 60.541016 8.578125 C 60.541016 8.6569911 60.510333 8.7741603 60.447266 8.9316406 L 57.394531 15.650391 C 57.079125 16.31274 56.61504 16.644531 56 16.644531 C 55.337643 16.644531 55.005859 16.423946 55.005859 15.982422 C 55.005859 15.824942 55.038471 15.683129 55.101562 15.556641 L 58.128906 8.8847656 C 58.428547 8.2223656 58.932914 7.890625 59.642578 7.890625 z M 72.263672 10.255859 L 67.203125 10.259766 L 62.755859 20.076172 L 67.273438 20.076172 L 70.183594 13.689453 L 70.75 13.689453 C 70.986586 13.689453 71.176451 13.712459 71.318359 13.757812 C 71.476084 13.804679 71.610341 13.883526 71.720703 13.994141 C 71.831116 14.10473 71.925065 14.246568 72.003906 14.419922 C 72.098546 14.578057 72.202138 14.775372 72.3125 15.011719 L 74.654297 20.074219 L 79.148438 20.074219 L 75.505859 12.693359 C 74.685798 11.069019 73.604152 10.255859 72.263672 10.255859 z "
       id="path1060"
       transform="matrix(0.26458333,0,0,0.26458333,0,290.64998)" />
    <path
       style="fill:#000000;stroke-width:0.04122161"
       d="M 3.0507812 0.71679688 L 3.0507812 0.71875 C 2.9314527 0.716785 2.8333017 0.7631193 2.7695312 0.83984375 C 2.7061744 0.91656815 2.6765739 1.0230817 2.7011719 1.140625 C 2.7180479 1.221129 2.7243071 1.226424 3.2070312 1.6953125 L 3.6953125 2.1699219 L 3.6308594 2.2148438 C 3.4826165 2.3176467 3.4267691 2.4406158 3.4609375 2.5917969 C 3.4797515 2.6772139 3.4786025 2.6777389 3.4140625 2.7011719 C 3.2725135 2.7484159 3.169965 2.9698726 3.2246094 3.109375 C 3.2385824 3.143391 3.2336195 3.164316 3.2109375 3.171875 C 3.1917715 3.175655 3.1388465 3.221783 3.0878906 3.265625 C 3.0100456 3.334412 2.9923065 3.359388 2.9804688 3.4296875 C 2.9726288 3.4754195 2.9718256 3.5442993 2.9785156 3.5839844 C 2.9895256 3.6512604 3.0100486 3.6743194 3.4121094 4.0722656 L 3.8339844 4.4902344 L 4.0664062 4.6015625 C 4.2907788 4.7085229 4.467033 4.5714906 4.7207031 4.8046875 C 5.017585 5.080593 6.031189 5.3710646 6.0878906 7.4160156 C 6.1445911 8.5572818 5.2163223 10.311124 5.2089844 11.365234 C 5.1934124 13.607817 7.6625525 13.791606 9.9042969 13.183594 C 10.141878 13.157134 10.375977 13.126184 10.650391 13.056641 C 10.959809 12.978021 11.252866 12.925783 11.300781 12.9375 C 11.516418 12.99381 11.424746 13.440182 11.035156 14.228516 C 10.252747 15.811835 7.9263776 16.549835 6.6132812 16.677734 L 6.625 16.689453 C 5.3449318 16.947827 3.9522627 18.728684 3.5019531 19.605469 L 3.3417969 19.917969 L 3.2148438 19.949219 C 3.1359076 19.964337 2.9078333 19.947508 2.6445312 19.962891 C 2.2998119 19.981788 2.1986164 20.006058 2.1386719 20.058594 C 2.0037885 20.175759 1.8686148 20.364734 1.9628906 20.916016 C 2.0101755 21.187008 2.0795812 21.504754 2.0898438 21.525391 C 2.1049316 21.563186 2.0793829 21.623546 1.8203125 22.128906 C 1.5104857 22.733215 1.4798563 22.808113 1.515625 22.933594 L 1.5175781 22.931641 L 1.5195312 22.931641 C 1.5525492 23.04616 1.6247767 23.125511 1.7167969 23.164062 C 1.8086957 23.202236 1.9182272 23.199271 2.0234375 23.142578 C 2.0954866 23.102893 2.0990364 23.094809 2.40625 22.496094 L 2.7167969 21.890625 L 2.7792969 21.939453 C 2.9209596 22.051327 3.0548745 22.067337 3.1894531 21.990234 C 3.2656337 21.947148 3.2673111 21.948662 3.3085938 22.001953 C 3.3951687 22.123654 3.6364838 22.157807 3.7539062 22.064453 C 3.7823472 22.041776 3.8025456 22.03787 3.8164062 22.060547 C 3.8256283 22.079445 3.8865304 22.114485 3.9433594 22.150391 C 4.0319061 22.204816 4.0601709 22.214149 4.1308594 22.205078 C 4.1768827 22.197519 4.2433007 22.178739 4.2792969 22.162109 C 4.3404118 22.131873 4.3561762 22.106218 4.6191406 21.605469 L 4.8964844 21.078125 L 4.9335938 20.824219 C 4.9702552 20.578549 4.7886856 20.449538 4.9375 20.138672 C 5.114518 19.773947 5.0942386 18.72063 7.0332031 18.068359 C 7.3012208 17.971603 7.6257446 17.922626 7.9746094 17.898438 L 7.96875 17.888672 C 8.6485496 17.871935 9.9073303 17.573826 10.435547 17.316406 C 11.436587 16.827827 11.774091 16.443028 12.376953 15.15625 C 12.52042 14.850108 12.660526 14.599609 12.6875 14.599609 C 12.71449 14.599609 12.787727 14.742599 12.849609 14.917969 C 13.023668 15.412255 13.179463 15.676663 13.732422 16.410156 C 14.647409 17.623952 15.044178 18.311468 15.289062 19.117188 C 15.382662 19.425217 15.401345 19.561146 15.404297 19.996094 C 15.407597 20.478059 15.398997 20.53026 15.291016 20.761719 C 15.224626 20.903988 15.107572 20.989615 15.007812 21.099609 L 14.953125 21.148438 C 13.500337 21.734043 12.964848 21.054708 12.705078 20.867188 C 12.479236 20.702249 12.562204 20.540292 12.441406 20.378906 L 12.316406 20.210938 L 11.916016 19.943359 C 11.535813 19.687485 11.513621 19.67238 11.458984 19.675781 C 11.427924 19.679561 11.375157 19.691786 11.337891 19.703125 C 11.282948 19.723156 11.26505 19.740752 11.224609 19.814453 C 11.200466 19.862831 11.17206 19.912616 11.171875 19.927734 C 11.170802 19.948786 11.15487 19.949092 11.123047 19.945312 C 11.003198 19.923769 10.846179 20.042298 10.830078 20.162109 C 10.820047 20.213209 10.818146 20.212286 10.748047 20.212891 C 10.622604 20.209867 10.533773 20.27403 10.476562 20.408203 L 10.451172 20.466797 L 9.9960938 20.154297 C 9.5469396 19.843469 9.5422327 19.843434 9.4746094 19.839844 C 9.3778988 19.840222 9.2994834 19.880556 9.2460938 19.941406 C 9.1937609 20.004146 9.1727987 20.089106 9.1933594 20.183594 L 9.1914062 20.183594 L 9.1933594 20.1875 C 9.2160278 20.29087 9.2656542 20.332342 9.71875 20.644531 C 10.097537 20.905697 10.136758 20.936687 10.142578 20.970703 C 10.143024 20.989336 10.216916 21.243803 10.287109 21.455078 C 10.431699 21.884962 10.59888 21.969764 10.740234 22 C 10.803298 22.015118 10.885504 21.992102 11.138672 21.873047 C 11.331857 21.78196 11.488948 21.68296 11.550781 21.664062 L 11.652344 21.636719 L 11.886719 21.798828 C 12.542831 22.25016 13.919592 22.771522 15.291016 22.208984 C 15.296363 22.207102 15.303305 22.207028 15.308594 22.205078 C 15.311555 22.203609 15.313469 22.202638 15.316406 22.201172 C 15.3217 22.198948 15.326738 22.197569 15.332031 22.195312 L 15.332031 22.191406 C 15.807699 21.950555 15.970475 21.737066 16.324219 21.257812 C 16.986352 20.360668 17.052476 19.479087 16.552734 18.234375 C 16.352283 17.735137 16.164572 17.395321 15.628906 16.574219 C 14.995484 15.603296 14.86569 15.267879 14.896484 14.658203 C 14.922644 14.140597 14.999159 14.152445 15.390625 14.734375 C 15.692322 15.183081 15.979107 15.471323 16.398438 15.751953 C 16.995613 16.151374 17.414189 16.321802 19.117188 16.867188 C 19.743844 17.067878 20.175532 17.284578 20.505859 17.558594 C 21.100647 18.051763 21.32741 18.606243 21.205078 19.144531 C 20.454757 20.439877 20.574398 21.393923 21.634766 22.419922 C 21.88014 22.653232 21.745033 22.802132 21.884766 22.947266 L 22.029297 23.097656 L 22.460938 23.310547 C 22.8715 23.515473 22.895565 23.52501 22.949219 23.513672 C 22.979459 23.506491 23.031068 23.491554 23.066406 23.472656 C 23.118276 23.445444 23.133637 23.425892 23.164062 23.347656 C 23.181588 23.296633 23.205539 23.239854 23.203125 23.228516 C 23.199795 23.205838 23.215026 23.200718 23.246094 23.201172 C 23.367575 23.206463 23.509564 23.070164 23.509766 22.949219 C 23.513602 22.894416 23.514966 22.894278 23.583984 22.886719 C 23.708845 22.87349 23.789661 22.798802 23.828125 22.658203 L 23.847656 22.597656 L 24.337891 22.847656 C 24.824214 23.096349 24.82894 23.09167 24.896484 23.087891 C 24.992099 23.07504 25.065563 23.026638 25.109375 22.958984 C 25.153029 22.889819 25.163817 22.802024 25.130859 22.710938 L 25.132812 22.710938 L 25.130859 22.703125 C 25.094758 22.603799 25.039164 22.567808 24.548828 22.318359 C 24.138941 22.109352 24.095575 22.084797 24.085938 22.050781 C 24.08316 22.032073 23.976199 21.790159 23.878906 21.589844 C 23.679018 21.183091 23.501516 21.122667 23.357422 21.111328 C 23.29292 21.104525 23.215862 21.137503 22.980469 21.289062 C 22.800807 21.404716 22.656617 21.524325 22.597656 21.550781 L 22.501953 21.589844 L 22.248047 21.460938 C 21.531084 21.096364 21.648449 20.437587 22.181641 19.632812 L 22.173828 19.628906 C 22.376648 19.245188 22.478062 18.835853 22.447266 18.453125 C 22.445066 17.70149 22.211888 17.09966 21.746094 16.632812 C 21.429562 16.315334 20.942932 16.069768 20.207031 15.855469 C 18.684484 15.412357 18.356667 15.285295 17.908203 14.955078 C 17.579033 14.71281 17.24053 14.295436 17.035156 13.880859 C 16.778723 13.363291 16.803831 13.339038 17.248047 13.673828 C 17.901365 14.165545 18.443283 14.357636 19.177734 14.359375 C 19.661639 14.360475 20.034537 14.303255 21.103516 14.0625 C 22.401897 13.770419 22.825685 13.756782 23.332031 14.003906 C 23.514792 14.20381 23.671259 14.403611 23.771484 14.601562 C 24.553405 16.063068 23.957594 16.67458 23.859375 16.988281 C 23.774519 17.254549 23.595219 17.228988 23.480469 17.394531 L 23.361328 17.566406 L 23.232422 18.029297 C 23.108843 18.471161 23.104477 18.496229 23.125 18.546875 C 23.138217 18.575221 23.164823 18.624061 23.1875 18.654297 C 23.224112 18.700029 23.24558 18.711444 23.328125 18.726562 C 23.381715 18.734122 23.438838 18.745967 23.453125 18.742188 C 23.475008 18.735762 23.481188 18.751014 23.486328 18.78125 C 23.503971 18.901439 23.666543 19.014865 23.785156 18.992188 C 23.836996 18.985384 23.836698 18.986215 23.859375 19.052734 C 23.896157 19.172923 23.985264 19.236708 24.130859 19.248047 L 24.193359 19.255859 L 24.041016 19.787109 C 23.888493 20.311443 23.89025 20.315474 23.908203 20.380859 C 23.939154 20.472324 24.001333 20.534217 24.076172 20.564453 C 24.152239 20.594311 24.240914 20.588574 24.324219 20.539062 L 24.328125 20.535156 C 24.418921 20.480958 24.441034 20.421183 24.59375 19.892578 C 24.721396 19.4506 24.738653 19.401837 24.769531 19.386719 C 24.787062 19.380294 25.005272 19.22912 25.183594 19.095703 C 25.545415 18.822708 25.571192 18.638141 25.556641 18.494141 C 25.550994 18.429511 25.503677 18.358833 25.310547 18.15625 C 25.163043 18.001667 25.017622 17.884945 24.980469 17.832031 L 24.923828 17.744141 L 25.001953 17.470703 C 25.22468 16.697828 25.395083 14.849486 24.767578 13.994141 C 24.701106 13.903824 24.630619 13.825158 24.560547 13.744141 C 24.400964 13.456742 23.961086 13.082763 23.773438 12.990234 C 23.056095 12.636093 22.491099 12.657617 21.185547 12.943359 C 19.930685 13.218131 19.433233 13.159171 18.890625 12.966797 C 18.507672 12.831868 18.023436 12.719647 18.023438 12.533203 C 18.023438 12.447033 18.081768 12.433833 18.537109 12.394531 C 18.958194 12.360511 19.317559 12.25065 19.744141 12.025391 C 20.085591 11.845107 20.471199 11.5073 20.898438 11.130859 L 20.900391 11.132812 L 20.902344 11.132812 C 20.907144 11.129013 20.911246 11.120967 20.916016 11.117188 C 20.929656 11.105848 20.941308 11.093371 20.955078 11.082031 C 20.952878 11.079431 20.949566 11.079972 20.947266 11.076172 C 20.984386 11.033842 21.016836 10.986822 21.052734 10.943359 C 23.328364 8.7657854 23.802734 6.1367188 23.802734 6.1367188 C 23.901734 5.8940731 24.058166 5.9729988 24.220703 5.7851562 L 24.388672 5.5917969 L 24.607422 5.0390625 C 24.816074 4.513179 24.825469 4.4859124 24.808594 4.4199219 C 24.798794 4.3809929 24.769601 4.3158947 24.744141 4.2773438 C 24.705071 4.2176268 24.678901 4.2036228 24.580078 4.171875 C 24.515908 4.152977 24.448878 4.1306718 24.429688 4.1367188 C 24.405428 4.1377387 24.393898 4.1217172 24.392578 4.0820312 C 24.386578 3.9319842 24.203221 3.7695968 24.054688 3.7832031 C 23.985948 3.7869831 23.98549 3.787033 23.96875 3.703125 C 23.93913 3.5507901 23.837027 3.4582218 23.660156 3.4238281 L 23.585938 3.4082031 L 23.841797 2.7773438 C 24.095951 2.1542886 24.098759 2.1486365 24.082031 2.0683594 C 24.057431 1.9508161 23.989381 1.8637137 23.900391 1.8183594 C 23.811121 1.7733834 23.700239 1.7684694 23.591797 1.8183594 C 23.473305 1.8731624 23.436297 1.9434656 23.179688 2.5722656 C 22.965162 3.0979223 22.936178 3.1602719 22.898438 3.171875 C 22.875348 3.175655 22.587622 3.333255 22.351562 3.4746094 C 21.872116 3.7622314 21.819559 3.9836401 21.818359 4.1621094 C 21.817812 4.2418574 21.865099 4.3325368 22.074219 4.6074219 C 22.2339 4.8175636 22.394199 4.981994 22.435547 5.0507812 L 22.496094 5.1660156 L 22.474609 5.7773438 C 22.474609 5.7773438 22.278043 7.9190881 20.390625 9.5078125 L 20.392578 9.5234375 C 20.212633 9.6409199 19.988357 9.7381811 19.837891 9.875 C 19.229299 10.271246 19.041609 10.57398 18.476562 10.576172 C 17.847057 10.578672 17.268749 10.628022 16.951172 10.310547 C 16.671921 10.031618 16.687503 9.9326115 17.136719 9.1367188 C 17.782922 7.9913329 18.06914 6.1704296 17.779297 5.0566406 C 17.501313 3.9883194 16.753225 3.1023588 15.693359 2.5820312 C 15.131989 2.3065039 14.681816 2.1917842 14.144531 2.1914062 C 13.261458 2.1907261 12.461917 2.5569158 11.910156 3.2128906 C 11.648772 3.5235678 11.331882 4.1762767 11.207031 4.6640625 C 11.008035 5.4414357 10.974161 6.1845143 11.080078 7.4550781 C 11.166408 8.4908577 11.167944 9.3471558 11.083984 9.6992188 C 10.948795 10.266866 10.638683 10.737264 10.222656 11.087891 C 7.9372306 12.03538 6.8436649 11.389584 6.8554688 10.880859 C 6.8813583 9.7642366 7.3805488 8.7399541 7.5273438 7.4570312 C 7.6761851 6.1561559 6.3622197 4.2798465 5.6503906 3.5878906 L 5.3984375 3.34375 L 5.4082031 3.2148438 C 5.4185971 3.1354738 5.4985021 2.9204279 5.5605469 2.6640625 C 5.6418259 2.3284405 5.6496235 2.2249483 5.6171875 2.1523438 C 5.5445143 1.9890682 5.4041889 1.8053923 4.8496094 1.734375 C 4.5766972 1.7003593 4.251248 1.6739548 4.2285156 1.6777344 C 4.1892879 1.6815139 4.1378141 1.6376773 3.7304688 1.2421875 C 3.2432072 0.76917965 3.181243 0.71929134 3.0507812 0.71679688 z M 14.623047 6.3886719 C 15.131372 6.389579 15.543245 7.0953512 15.542969 7.9667969 C 15.543245 8.8382425 15.131372 9.5459301 14.623047 9.546875 C 14.113933 9.5478577 13.700895 8.839641 13.701172 7.9667969 C 13.700895 7.0939906 14.113933 6.3876892 14.623047 6.3886719 z M 12.527344 6.6328125 C 12.957878 6.632359 13.307881 7.2306839 13.308594 7.96875 C 13.30918 8.7084413 12.958795 9.3090093 12.527344 9.3085938 C 12.095889 9.3090093 11.745507 8.7084413 11.746094 7.96875 C 11.746807 7.2306461 12.096807 6.632359 12.527344 6.6328125 z "
       transform="matrix(0.26458333,0,0,0.26458333,0,290.64998)"
       id="path893" />
  </g>
</svg>
