<?xml version="1.0" encoding="UTF-8" standalone="no"?>
<!-- Created with Inkscape (http://www.inkscape.org/) -->

<svg
   xmlns:dc="http://purl.org/dc/elements/1.1/"
   xmlns:cc="http://creativecommons.org/ns#"
   xmlns:rdf="http://www.w3.org/1999/02/22-rdf-syntax-ns#"
   xmlns:svg="http://www.w3.org/2000/svg"
   xmlns="http://www.w3.org/2000/svg"
   xmlns:sodipodi="http://sodipodi.sourceforge.net/DTD/sodipodi-0.dtd"
   xmlns:inkscape="http://www.inkscape.org/namespaces/inkscape"
   width="96"
   height="24"
   viewBox="0 0 25.4 6.3500002"
   version="1.1"
   id="svg8"
   inkscape:version="0.92.2 (5c3e80d, 2017-08-06)"
   sodipodi:docname="logo2.svg">
  <defs
     id="defs2" />
  <sodipodi:namedview
     id="base"
     pagecolor="#ffffff"
     bordercolor="#666666"
     borderopacity="1.0"
     inkscape:pageopacity="0.0"
     inkscape:pageshadow="2"
     inkscape:zoom="8"
     inkscape:cx="53.189025"
     inkscape:cy="0.67369493"
     inkscape:document-units="mm"
     inkscape:current-layer="layer1"
     showgrid="false"
     units="px"
     inkscape:pagecheckerboard="false"
     borderlayer="true"
     inkscape:object-nodes="false"
     inkscape:snap-nodes="false"
     inkscape:window-width="1533"
     inkscape:window-height="845"
     inkscape:window-x="67"
     inkscape:window-y="27"
     inkscape:window-maximized="1" />
  <metadata
     id="metadata5">
    <rdf:RDF>
      <cc:Work
         rdf:about="">
        <dc:format>image/svg+xml</dc:format>
        <dc:type
           rdf:resource="http://purl.org/dc/dcmitype/StillImage" />
        <dc:title></dc:title>
      </cc:Work>
    </rdf:RDF>
  </metadata>
  <g
     inkscape:label="Layer 1"
     inkscape:groupmode="layer"
     id="layer1"
     transform="translate(0,-290.64998)">
    <path
       style="fill:#000000;stroke-width:0.04122161"
       d="M 1.1757812 0.71875 L 1.1757812 0.72070312 C 1.0564521 0.71873777 0.95830171 0.76507247 0.89453125 0.84179688 C 0.83117427 0.91852128 0.80157395 1.0250348 0.82617188 1.1425781 C 0.84304747 1.2230821 0.84930644 1.2283774 1.3320312 1.6972656 L 1.8203125 2.171875 L 1.7558594 2.2167969 C 1.6076165 2.3196 1.5517691 2.4425689 1.5859375 2.59375 C 1.604752 2.6791673 1.603601 2.6796919 1.5390625 2.703125 C 1.3975135 2.7503691 1.294965 2.9717502 1.3496094 3.1113281 C 1.3635823 3.1453439 1.3586147 3.1662691 1.3359375 3.1738281 C 1.3167715 3.1776077 1.263847 3.2237356 1.2128906 3.2675781 C 1.1350452 3.3363655 1.1173066 3.3613414 1.1054688 3.4316406 C 1.09763 3.4773729 1.0968322 3.5462525 1.1035156 3.5859375 C 1.1145254 3.6532131 1.1350493 3.6763857 1.5371094 4.0742188 L 1.9589844 4.4921875 L 2.1914062 4.6035156 C 2.4157847 4.7104763 2.5920331 4.5726879 2.8457031 4.8066406 C 3.1425831 5.0825461 4.156189 5.3730176 4.2128906 7.4179688 C 4.2695911 8.5592349 3.3413224 10.313077 3.3339844 11.367188 C 3.3184089 13.60977 5.7875525 13.793559 8.0292969 13.185547 C 8.266878 13.15909 8.5009765 13.13009 8.7753906 13.060547 C 9.0848092 12.981933 9.3778655 12.927737 9.4257812 12.939453 C 9.6414184 12.995768 9.5497462 13.442135 9.1601562 14.230469 C 8.3777464 15.813788 6.9576276 16.536163 5.6445312 16.664062 L 5.6425781 16.671875 C 4.6253096 16.761828 3.6060496 17.055329 2.9394531 17.580078 C 2.4099954 17.99696 2.1278517 18.407357 1.9667969 18.996094 C 1.7183942 19.904163 2.1779164 21.083797 2.8886719 21.361328 C 3.6259644 21.64895 4.6200646 21.293545 4.8066406 20.675781 C 4.9261115 20.280178 4.7896203 19.837366 4.4941406 19.662109 C 4.1706924 19.470487 4.0735294 19.536533 4.2597656 19.822266 C 4.4861744 20.169604 4.4723883 20.439631 4.2148438 20.646484 C 3.9814163 20.833193 3.5985792 20.868295 3.3417969 20.726562 C 3.1981166 20.647192 2.9546611 20.331509 2.9121094 20.167969 C 2.8963412 20.107496 2.876833 19.975031 2.8652344 19.871094 C 2.8183221 19.45338 3.1313944 18.839557 3.5898438 18.457031 C 4.2218192 17.929938 4.9835964 17.748826 5.8496094 17.804688 C 6.2658015 17.827365 6.7539815 17.857485 6.890625 17.859375 C 7.5455812 17.866934 8.0108403 17.586403 8.5605469 17.318359 C 9.5615876 16.82978 9.8990909 16.444981 10.501953 15.158203 C 10.64542 14.852061 10.785529 14.601562 10.8125 14.601562 C 10.839486 14.601562 10.912727 14.746127 10.974609 14.921875 C 11.148668 15.416162 11.304462 15.68057 11.857422 16.414062 C 12.772409 17.627858 13.169173 18.315374 13.414062 19.121094 C 13.507659 19.429125 13.526345 19.565052 13.529297 20 C 13.532602 20.481965 13.524019 20.534167 13.416016 20.765625 C 13.025783 21.601808 11.99173 21.899723 11.107422 21.433594 C 10.346897 21.032737 10.126905 20.090546 10.648438 19.470703 C 10.862215 19.216719 11.068867 19.095703 11.289062 19.095703 C 11.461787 19.095703 11.507197 19.113559 11.648438 19.25 C 11.863364 19.45485 11.918127 19.649044 11.835938 19.925781 C 11.801922 20.040679 11.78205 20.14258 11.792969 20.154297 C 11.834453 20.19625 11.980927 20.080303 12.070312 19.935547 C 12.280855 19.594633 12.123315 18.967811 11.767578 18.732422 C 11.619606 18.63302 11.558917 18.621094 11.265625 18.621094 C 10.971959 18.621094 10.899984 18.636048 10.658203 18.755859 C 10.133222 19.014379 9.8482526 19.468757 9.8105469 20.107422 C 9.7715951 20.767214 10.010497 21.367853 10.492188 21.822266 C 10.80483 22.117447 11.305888 22.40085 11.683594 22.496094 C 11.841812 22.537291 12.074277 22.552859 12.361328 22.544922 C 12.768517 22.533583 12.819713 22.521709 13.123047 22.376953 C 13.643164 22.129772 14.076261 21.765051 14.449219 21.259766 C 15.111352 20.362619 15.177475 19.48104 14.677734 18.236328 C 14.477283 17.73709 14.289572 17.397274 13.753906 16.576172 C 13.120483 15.605249 12.99069 15.269832 13.021484 14.660156 C 13.047639 14.14255 13.124158 14.154545 13.515625 14.736328 C 13.817322 15.185034 14.104108 15.473276 14.523438 15.753906 C 15.120618 16.153327 15.539189 16.323755 17.242188 16.869141 C 17.868848 17.069834 18.300532 17.286531 18.630859 17.560547 C 19.32878 18.13923 19.551837 18.804087 19.255859 19.425781 C 19.014113 19.93375 18.624872 20.203884 18.205078 20.154297 C 17.946925 20.124061 17.61399 19.940877 17.453125 19.742188 C 17.216545 19.449652 17.264793 18.971626 17.564453 18.654297 C 17.710275 18.500092 17.770522 18.466541 17.933594 18.447266 C 18.096344 18.428368 18.153758 18.444826 18.291016 18.535156 C 18.381142 18.594873 18.471461 18.642578 18.492188 18.642578 C 18.606715 18.642578 18.563089 18.313357 18.421875 18.115234 C 18.29483 17.936463 17.9548 17.800661 17.705078 17.832031 C 17.308421 17.878897 16.882595 18.210372 16.689453 18.621094 C 16.508958 19.005169 16.510262 19.535803 16.691406 19.890625 C 16.915899 20.330675 17.534986 20.738375 18.119141 20.832031 C 18.733145 20.930299 19.419773 20.683953 19.917969 20.185547 C 20.365731 19.737824 20.574413 19.185661 20.572266 18.455078 C 20.570097 17.703443 20.33689 17.101613 19.871094 16.634766 C 19.554562 16.317285 19.067932 16.071721 18.332031 15.857422 C 16.809484 15.41431 16.481667 15.287249 16.033203 14.957031 C 15.704033 14.714764 15.36553 14.297389 15.160156 13.882812 C 14.903723 13.365244 14.928831 13.340915 15.373047 13.675781 C 16.026365 14.167498 16.568283 14.35959 17.302734 14.361328 C 17.786639 14.362462 18.159537 14.304831 19.228516 14.064453 C 20.528915 13.771918 20.95159 13.761451 21.458984 14.009766 C 21.738673 14.146585 22.151377 14.551783 22.3125 14.849609 C 22.476475 15.152727 22.486864 15.570887 22.337891 15.810547 C 22.17686 16.069822 21.986792 16.1875 21.730469 16.1875 C 21.482698 16.1875 21.341909 16.107631 21.1875 15.880859 C 21.024387 15.641237 21.061508 15.421612 21.339844 14.962891 L 21.433594 14.808594 L 21.320312 14.808594 C 21.171785 14.808594 20.922721 15.066701 20.855469 15.291016 C 20.777486 15.551047 20.795482 15.953292 20.892578 16.167969 C 21.140935 16.717928 21.727827 16.956427 22.179688 16.691406 C 22.607558 16.440824 22.981462 15.866308 23.101562 15.277344 C 23.272446 14.439347 22.838506 13.703831 21.898438 13.240234 C 21.181095 12.886093 20.662974 12.868565 19.357422 13.154297 C 18.10256 13.429069 17.558233 13.455294 17.015625 13.263672 C 16.632672 13.128743 16.148437 12.719798 16.148438 12.533203 C 16.148438 12.44703 16.20677 12.433838 16.662109 12.394531 C 17.083194 12.360516 17.442559 12.25065 17.869141 12.025391 C 18.210591 11.845107 18.596199 11.5073 19.023438 11.130859 L 19.025391 11.132812 L 19.027344 11.132812 C 19.032106 11.129033 19.036291 11.12292 19.041016 11.119141 C 19.05466 11.107802 19.066317 11.095323 19.080078 11.083984 C 19.077909 11.081377 19.074533 11.079951 19.072266 11.076172 C 19.109381 11.033841 19.14184 10.986824 19.177734 10.943359 C 21.453364 8.7657846 21.927734 6.1367188 21.927734 6.1367188 C 22.026735 5.8940731 22.183165 5.9729988 22.345703 5.7851562 L 22.513672 5.5917969 L 22.732422 5.0390625 C 22.941074 4.513179 22.950469 4.4859124 22.933594 4.4199219 C 22.923805 4.3809927 22.894611 4.3158949 22.869141 4.2773438 C 22.830068 4.2176272 22.803905 4.203623 22.705078 4.171875 C 22.640909 4.1529774 22.57388 4.1318054 22.554688 4.1367188 C 22.530423 4.1377392 22.518901 4.1217163 22.517578 4.0820312 C 22.511606 3.931984 22.328227 3.7695968 22.179688 3.7832031 C 22.110949 3.7869827 22.110486 3.7877864 22.09375 3.703125 C 22.064383 3.55081 21.962027 3.4582218 21.785156 3.4238281 L 21.710938 3.4101562 L 21.966797 2.7792969 C 22.220951 2.1562418 22.223759 2.1505897 22.207031 2.0703125 C 22.182427 1.9527692 22.11438 1.8656668 22.025391 1.8203125 C 21.936122 1.7753361 21.825239 1.7704227 21.716797 1.8203125 C 21.598305 1.8751156 21.5613 1.9453432 21.304688 2.5742188 C 21.090162 3.0998754 21.061184 3.162225 21.023438 3.1738281 C 21.000345 3.1776077 20.712621 3.3352082 20.476562 3.4765625 C 19.997111 3.7641845 19.944559 3.9855932 19.943359 4.1640625 C 19.942812 4.2438105 19.990101 4.3344522 20.199219 4.609375 C 20.3589 4.8195167 20.519199 4.9839092 20.560547 5.0527344 L 20.621094 5.1679688 L 20.599609 5.7792969 C 20.599609 5.7792969 20.403045 7.9210412 18.515625 9.5097656 L 18.517578 9.5253906 C 18.3381 9.6429339 18.113357 9.7401342 17.962891 9.8769531 C 17.354299 10.273199 17.166608 10.575933 16.601562 10.578125 C 15.972053 10.580619 15.393749 10.62998 15.076172 10.3125 C 14.796921 10.033571 14.812503 9.9346404 15.261719 9.1386719 C 15.907922 7.993286 16.19414 6.1723827 15.904297 5.0585938 C 15.626313 3.9902725 14.878225 3.1043119 13.818359 2.5839844 C 13.256989 2.3084568 12.806816 2.1937373 12.269531 2.1933594 C 11.386458 2.1926791 10.586917 2.5589823 10.035156 3.2148438 C 9.7737717 3.5255209 9.4568819 4.1782298 9.3320312 4.6660156 C 9.1330353 5.4433889 9.0991606 6.1864675 9.2050781 7.4570312 C 9.2914101 8.4928108 9.2929201 9.3491089 9.2089844 9.7011719 C 9.0737831 10.268819 8.7636828 10.739217 8.3476562 11.089844 C 6.0622296 12.037334 4.9686649 11.391537 4.9804688 10.882812 C 5.0063585 9.7661889 5.5055488 8.7419072 5.6523438 7.4589844 C 5.8011853 6.1581088 4.4872197 4.2817997 3.7753906 3.5898438 L 3.5234375 3.3457031 L 3.5332031 3.2167969 C 3.5435855 3.1374268 3.6235022 2.9222298 3.6855469 2.6660156 C 3.7668267 2.3303936 3.774623 2.2269016 3.7421875 2.1542969 C 3.669514 1.9910213 3.5291874 1.8072699 2.9746094 1.7363281 C 2.7016988 1.7023124 2.3762477 1.675908 2.3535156 1.6796875 C 2.3142887 1.683467 2.2628157 1.6397816 1.8554688 1.2441406 C 1.3682072 0.77113275 1.3062429 0.72124449 1.1757812 0.71875 z M 58.744141 4.4589844 C 58.192199 4.4589844 57.703165 4.4897422 57.277344 4.5527344 C 56.867308 4.6003564 56.497185 4.7114113 56.166016 4.8847656 C 55.834841 5.0423215 55.543347 5.2704952 55.291016 5.5703125 C 55.03875 5.8698023 54.800903 6.2552432 54.580078 6.7285156 L 49.779297 17.375 C 49.590043 17.785129 49.494141 18.114992 49.494141 18.367188 C 49.494141 18.872132 49.691687 19.282519 50.085938 19.597656 C 50.464422 19.913348 51.009078 20.072266 51.71875 20.072266 L 56.78125 20.072266 C 57.333192 20.072266 57.822225 20.049261 58.248047 20.003906 C 58.673856 19.94041 59.051643 19.829355 59.382812 19.671875 C 59.71397 19.498445 59.997802 19.262708 60.234375 18.962891 C 60.486641 18.663401 60.722534 18.276007 60.943359 17.802734 L 65.792969 7.1542969 C 65.966449 6.7917898 66.052734 6.4599988 66.052734 6.1601562 C 66.052734 5.6557909 65.857143 5.247332 65.462891 4.9316406 C 65.068633 4.6165036 64.516305 4.4589844 63.806641 4.4589844 L 58.744141 4.4589844 z M 41.714844 4.4609375 L 40.175781 7.890625 L 45.806641 7.890625 C 46.074715 7.890625 46.279941 7.9535899 46.421875 8.0800781 C 46.563784 8.2059868 46.634766 8.3730226 46.634766 8.578125 C 46.634766 8.7038573 46.611496 8.8210265 46.564453 8.9316406 L 45.996094 10.255859 L 39.113281 10.255859 L 34.617188 20.074219 L 39.136719 20.074219 L 42.068359 13.683594 L 46.351562 13.683594 C 46.840467 13.683594 47.25659 13.660589 47.603516 13.615234 C 47.966224 13.567612 48.275012 13.466074 48.527344 13.308594 C 48.795433 13.151013 49.031327 12.937991 49.236328 12.669922 C 49.441335 12.401878 49.646561 12.039404 49.851562 11.582031 L 51.863281 7.1582031 C 52.036762 6.7955953 52.123047 6.4714685 52.123047 6.1875 C 52.123047 5.6673614 51.925503 5.2492851 51.53125 4.9335938 C 51.152761 4.6184567 50.608102 4.4609375 49.898438 4.4609375 L 41.714844 4.4609375 z M 69.851562 4.4609375 L 68.291016 7.890625 L 79.787109 7.890625 L 81.347656 4.4609375 L 78.130859 4.4609375 C 77.626182 4.4609375 77.200441 4.4992589 76.853516 4.578125 C 76.522346 4.6408652 76.230844 4.7367931 75.978516 4.8632812 C 75.726182 4.9738954 75.49797 5.1232717 75.292969 5.3125 C 75.087972 5.4860055 74.875122 5.675757 74.654297 5.8808594 L 72.714844 7.8203125 L 74.369141 4.4609375 L 69.851562 4.4609375 z M 86.4375 4.4609375 L 84.876953 7.890625 L 93.369141 7.890625 L 94.929688 4.4609375 L 86.4375 4.4609375 z M 12.748047 6.3925781 C 13.256372 6.3934852 13.668245 7.0992575 13.667969 7.9707031 C 13.668245 8.8421488 13.256372 9.5498364 12.748047 9.5507812 C 12.238933 9.5517639 11.825895 8.8435472 11.826172 7.9707031 C 11.825895 7.0978968 12.238933 6.3915954 12.748047 6.3925781 z M 10.652344 6.6347656 C 11.082878 6.6343121 11.432881 7.232637 11.433594 7.9707031 C 11.43418 8.7103945 11.083795 9.3109626 10.652344 9.3105469 C 10.220889 9.3109626 9.8705072 8.7103945 9.8710938 7.9707031 C 9.8718066 7.2325992 10.221806 6.6343121 10.652344 6.6347656 z M 59.642578 7.890625 C 59.926474 7.890625 60.147006 7.9535899 60.304688 8.0800781 C 60.462369 8.2059868 60.541016 8.3730226 60.541016 8.578125 C 60.541016 8.6569911 60.510333 8.7741603 60.447266 8.9316406 L 57.394531 15.650391 C 57.079125 16.31274 56.61504 16.644531 56 16.644531 C 55.337643 16.644531 55.005859 16.423946 55.005859 15.982422 C 55.005859 15.824942 55.03847 15.683129 55.101562 15.556641 L 58.128906 8.8847656 C 58.428547 8.2223656 58.932914 7.890625 59.642578 7.890625 z M 72.263672 10.255859 L 67.203125 10.259766 L 62.755859 20.076172 L 67.273438 20.076172 L 70.183594 13.689453 L 70.75 13.689453 C 70.986586 13.689453 71.176451 13.712458 71.318359 13.757812 C 71.476084 13.804679 71.610341 13.883526 71.720703 13.994141 C 71.831116 14.10473 71.925065 14.246568 72.003906 14.419922 C 72.098546 14.578057 72.202138 14.775372 72.3125 15.011719 L 74.654297 20.074219 L 79.148438 20.074219 L 75.505859 12.693359 C 74.685798 11.069019 73.604152 10.255859 72.263672 10.255859 z M 83.8125 10.255859 L 79.341797 20.074219 L 87.833984 20.074219 L 89.394531 16.644531 L 85.421875 16.644531 L 86.769531 13.6875 L 90.744141 13.6875 L 92.304688 10.255859 L 83.8125 10.255859 z "
       transform="matrix(0.26458333,0,0,0.26458333,0,290.64998)"
       id="path893" />
  </g>
</svg>
