<?xml version="1.0" encoding="UTF-8" standalone="no"?>
<!-- Created with Inkscape (http://www.inkscape.org/) -->

<svg
   xmlns:dc="http://purl.org/dc/elements/1.1/"
   xmlns:cc="http://creativecommons.org/ns#"
   xmlns:rdf="http://www.w3.org/1999/02/22-rdf-syntax-ns#"
   xmlns:svg="http://www.w3.org/2000/svg"
   xmlns="http://www.w3.org/2000/svg"
   xmlns:sodipodi="http://sodipodi.sourceforge.net/DTD/sodipodi-0.dtd"
   xmlns:inkscape="http://www.inkscape.org/namespaces/inkscape"
   width="24"
   height="24"
   viewBox="0 0 6.3499999 6.3500002"
   version="1.1"
   id="svg8"
   inkscape:version="0.92.2 (5c3e80d, 2017-08-06)"
   sodipodi:docname="logo.svg">
  <defs
     id="defs2" />
  <sodipodi:namedview
     id="base"
     pagecolor="#ffffff"
     bordercolor="#666666"
     borderopacity="1.0"
     inkscape:pageopacity="0.0"
     inkscape:pageshadow="2"
     inkscape:zoom="22.627417"
     inkscape:cx="21.28931"
     inkscape:cy="12.485547"
     inkscape:document-units="mm"
     inkscape:current-layer="layer1"
     showgrid="false"
     units="px"
     inkscape:pagecheckerboard="false"
     borderlayer="true"
     inkscape:object-nodes="false"
     inkscape:snap-nodes="false"
     inkscape:window-width="1533"
     inkscape:window-height="845"
     inkscape:window-x="67"
     inkscape:window-y="27"
     inkscape:window-maximized="1" />
  <metadata
     id="metadata5">
    <rdf:RDF>
      <cc:Work
         rdf:about="">
        <dc:format>image/svg+xml</dc:format>
        <dc:type
           rdf:resource="http://purl.org/dc/dcmitype/StillImage" />
        <dc:title></dc:title>
      </cc:Work>
    </rdf:RDF>
  </metadata>
  <g
     inkscape:label="Layer 1"
     inkscape:groupmode="layer"
     id="layer1"
     transform="translate(0,-290.64998)">
    <path
       style="fill:#000000;stroke-width:0.03991567"
       d="M 12.558594 1.6171875 C 11.703498 1.616545 10.928812 1.970168 10.394531 2.6054688 C 10.141428 2.9063191 9.8357395 3.5393912 9.7148438 4.0117188 C 9.5221521 4.7644873 9.4892356 5.4825788 9.5917969 6.7128906 C 9.6753925 7.7158639 9.6769554 8.5458054 9.5957031 8.8867188 C 9.3034474 10.113705 8.2125425 10.965902 6.9375 10.964844 C 6.0288385 10.96405 5.2279581 10.521993 4.7851562 9.8789062 C 4.5234088 9.4417283 4.3585738 8.5556503 3.9863281 8.3164062 C 3.6140825 8.0771622 3.3966362 8.131076 3.0859375 8.2773438 C 2.7752388 8.4236115 2.6160494 9.0440069 2.3886719 9.203125 C 2.1612944 9.3622431 2.04765 9.3704601 1.9042969 9.3515625 C 1.7609439 9.3326649 1.7299009 9.3015739 1.5957031 9.1621094 C 1.4615057 9.0226448 1.2653539 8.6428595 1.2070312 8.4648438 C 1.1487086 8.286828 1.2964029 8.1728143 1.1660156 8.1425781 C 1.0356287 8.1123419 0.93849426 8.3028053 0.91210938 8.5449219 C 0.88572449 8.7871896 1.0552015 9.2201204 1.2460938 9.4707031 C 1.436986 9.7212858 1.7424416 9.9442509 1.984375 9.9941406 C 2.2263082 10.04403 2.3711537 9.9827165 2.5488281 9.875 C 2.7265026 9.7680394 2.8654369 9.4898954 2.9785156 9.3632812 C 3.0915942 9.2366671 3.1158273 9.1358317 3.2207031 9.109375 C 3.325579 9.0829183 3.3295572 9.0530778 3.5019531 9.203125 C 3.6743495 9.3531722 3.9804687 10.164062 3.9804688 10.164062 C 4.1183119 10.396881 4.2793764 10.623806 4.4960938 10.839844 C 5.2069949 11.548543 6.2679816 12.077844 7.3320312 12.255859 C 7.9177628 12.353749 8.4633894 12.319333 9.1757812 12.138672 C 9.4753957 12.062703 9.75829 12.010146 9.8046875 12.021484 C 10.013491 12.07591 9.924121 12.508095 9.546875 13.271484 C 8.7892528 14.804612 7.4140739 15.505051 6.1425781 15.628906 L 6.140625 15.636719 C 5.1555849 15.723648 4.1689156 16.007505 3.5234375 16.515625 C 3.0107536 16.919316 2.7379837 17.316615 2.5820312 17.886719 C 2.3414983 18.765988 2.7863707 19.90901 3.4746094 20.177734 C 4.1885436 20.456286 5.1513657 20.111971 5.3320312 19.513672 C 5.4477264 19.130579 5.3153996 18.700951 5.0292969 18.53125 C 4.716095 18.345675 4.622398 18.410839 4.8027344 18.6875 C 5.0219697 19.023878 5.0091502 19.28406 4.7597656 19.484375 C 4.5337348 19.665036 4.1627097 19.699697 3.9140625 19.5625 C 3.7749328 19.485776 3.5392512 19.179847 3.4980469 19.021484 C 3.4827776 18.962902 3.4623986 18.83491 3.4511719 18.734375 C 3.4057465 18.32989 3.7103721 17.735628 4.1542969 17.365234 C 4.7662508 16.854847 5.5032199 16.678337 6.3417969 16.732422 C 6.7448034 16.755099 7.2172945 16.783644 7.3496094 16.785156 C 7.9838156 16.792715 8.4345056 16.521334 8.9667969 16.261719 C 9.9361229 15.788635 10.263893 15.415919 10.847656 14.169922 C 10.986577 13.873607 11.122321 13.630859 11.148438 13.630859 C 11.174554 13.630859 11.244771 13.771328 11.304688 13.941406 C 11.473236 14.420008 11.624715 14.676432 12.160156 15.386719 C 13.046155 16.562038 13.428885 17.227605 13.666016 18.007812 C 13.756645 18.306017 13.77449 18.438222 13.777344 18.859375 C 13.780544 19.326071 13.772544 19.375483 13.667969 19.599609 C 13.290099 20.409298 12.289886 20.697445 11.433594 20.246094 C 10.697163 19.857936 10.483271 18.945892 10.988281 18.345703 C 11.195286 18.099656 11.396156 17.982422 11.609375 17.982422 C 11.776627 17.982422 11.820265 18.001285 11.957031 18.132812 C 12.165147 18.331238 12.218257 18.519141 12.138672 18.787109 C 12.105752 18.898227 12.087077 18.996474 12.097656 19.007812 C 12.137825 19.048253 12.278679 18.935142 12.365234 18.794922 C 12.569106 18.464969 12.416736 17.858765 12.072266 17.630859 C 11.92898 17.534481 11.869944 17.523438 11.585938 17.523438 C 11.301577 17.523438 11.232166 17.538643 10.998047 17.654297 C 10.489698 17.904502 10.214245 18.344447 10.177734 18.962891 C 10.140015 19.601782 10.371461 20.183034 10.837891 20.623047 C 11.140627 20.908779 11.624494 21.18317 11.990234 21.275391 C 12.143441 21.315076 12.368527 21.329825 12.646484 21.322266 C 13.040773 21.310927 13.091042 21.299621 13.384766 21.160156 C 13.888405 20.920912 14.30878 20.567423 14.669922 20.078125 C 15.311078 19.209401 15.37453 18.355644 14.890625 17.150391 C 14.696524 16.666951 14.514788 16.338068 13.996094 15.542969 C 13.382738 14.602811 13.25729 14.277862 13.287109 13.6875 C 13.312432 13.186297 13.38656 13.198078 13.765625 13.761719 C 14.057764 14.196213 14.33419 14.474346 14.740234 14.746094 C 15.318495 15.132853 15.724002 15.298058 17.373047 15.826172 C 17.979854 16.02044 18.398888 16.230771 18.71875 16.496094 C 19.39456 17.056447 19.61082 17.700731 19.324219 18.302734 C 19.09013 18.794602 18.713135 19.055812 18.306641 19.007812 C 18.056666 18.977576 17.733894 18.801829 17.578125 18.609375 C 17.34904 18.326288 17.395381 17.861963 17.685547 17.554688 C 17.82675 17.405396 17.885064 17.374366 18.042969 17.355469 C 18.200564 17.336571 18.255765 17.351768 18.388672 17.439453 C 18.475941 17.49728 18.563915 17.544922 18.583984 17.544922 C 18.694883 17.544922 18.652365 17.225203 18.515625 17.033203 C 18.392605 16.860101 18.064077 16.729529 17.822266 16.759766 C 17.438176 16.80512 17.024914 17.125642 16.837891 17.523438 C 16.663114 17.895343 16.664535 18.408394 16.839844 18.751953 C 17.057223 19.178057 17.657008 19.573354 18.222656 19.664062 C 18.817208 19.759307 19.482432 19.521557 19.964844 19.039062 C 20.39842 18.605513 20.599735 18.070733 20.597656 17.363281 C 20.595556 16.635458 20.37096 16.051679 19.919922 15.599609 C 19.613417 15.292334 19.142278 15.055152 18.429688 14.847656 C 16.955377 14.418566 16.637381 14.294357 16.203125 13.974609 C 15.884382 13.739901 15.556289 13.337008 15.357422 12.935547 C 15.109114 12.434382 15.134309 12.410394 15.564453 12.734375 C 16.197074 13.21052 16.720458 13.396775 17.431641 13.398438 C 17.900215 13.399571 18.261763 13.344147 19.296875 13.111328 C 20.556076 12.828242 20.965711 12.818216 21.457031 13.058594 C 21.727857 13.191255 22.127184 13.582716 22.283203 13.871094 C 22.441981 14.164763 22.452851 14.568718 22.308594 14.800781 C 22.152666 15.051742 21.966951 15.166016 21.71875 15.166016 C 21.478829 15.166016 21.342876 15.088731 21.193359 14.869141 C 21.035413 14.637078 21.072279 14.424639 21.341797 13.980469 L 21.431641 13.832031 L 21.322266 13.832031 C 21.178443 13.832031 20.938168 14.081505 20.873047 14.298828 C 20.797536 14.550545 20.814168 14.940563 20.908203 15.148438 C 21.148691 15.680973 21.716752 15.910927 22.154297 15.654297 C 22.568612 15.411651 22.930579 14.855449 23.046875 14.285156 C 23.212346 13.473729 22.793099 12.761394 21.882812 12.3125 C 21.188192 11.969697 20.686066 11.953807 19.421875 12.230469 C 18.206769 12.496547 17.679715 12.521512 17.154297 12.335938 C 16.783476 12.205166 16.314453 11.809568 16.314453 11.628906 C 16.314453 11.545379 16.371584 11.531936 16.8125 11.494141 C 17.220244 11.460125 17.567402 11.354797 17.980469 11.136719 C 18.311102 10.962105 18.683953 10.635982 19.097656 10.271484 L 19.099609 10.273438 L 19.101562 10.273438 C 19.106136 10.269658 19.110661 10.261592 19.115234 10.257812 C 19.128463 10.246474 19.139002 10.235948 19.152344 10.224609 C 19.150216 10.222115 19.148607 10.220576 19.146484 10.216797 C 19.883091 9.3779685 20.465011 8.3061111 20.541016 7.3710938 C 20.593914 6.7206749 20.489489 6.2501949 20.177734 5.7480469 C 19.696923 4.9736595 18.555791 4.5240653 17.890625 4.8457031 C 17.200748 5.1794354 16.799629 6.118789 17.115234 6.6582031 C 17.317311 7.003274 17.720044 7.199579 18.039062 7.1054688 C 18.388147 7.0019097 18.405537 6.8879683 18.080078 6.8320312 C 17.684362 6.7639998 17.502562 6.576918 17.525391 6.2578125 C 17.546745 5.9694345 17.77326 5.6747564 18.042969 5.5859375 C 18.193882 5.5364257 18.576605 5.5709572 18.720703 5.6484375 C 18.774036 5.6786737 18.88352 5.7504524 18.964844 5.8105469 C 19.292177 6.0524366 19.520773 6.6804519 19.490234 7.2578125 C 19.446445 8.0828834 19.05363 8.7627254 18.402344 9.3554688 C 17.813033 9.7391664 17.30105 9.9685866 16.753906 9.9707031 C 16.14434 9.973122 15.582907 9.7862448 15.275391 9.4785156 C 15.004988 9.2082794 15.020096 9.1126693 15.455078 8.3417969 C 16.080809 7.2326945 16.358785 5.469151 16.078125 4.390625 C 15.808947 3.3561683 15.084882 2.4979894 14.058594 1.9941406 C 13.515008 1.727306 13.078857 1.6175655 12.558594 1.6171875 z M 13.021484 5.6816406 A 0.89157357 1.5284671 0 0 1 13.912109 7.2109375 A 0.89157357 1.5284671 0 0 1 13.021484 8.7402344 A 0.89157357 1.5284671 0 0 1 12.128906 7.2109375 A 0.89157357 1.5284671 0 0 1 13.021484 5.6816406 z M 10.992188 5.9179688 A 0.75545544 1.2951133 0 0 1 11.748047 7.2109375 A 0.75545544 1.2951133 0 0 1 10.992188 8.5078125 A 0.75545544 1.2951133 0 0 1 10.236328 7.2109375 A 0.75545544 1.2951133 0 0 1 10.992188 5.9179688 z "
       transform="matrix(0.26458333,0,0,0.26458333,0,290.64998)"
       id="path893" />
  </g>
</svg>
